<?xml version="1.0" encoding="UTF-8" standalone="no"?><!DOCTYPE svg PUBLIC "-//W3C//DTD SVG 1.1//EN" "http://www.w3.org/Graphics/SVG/1.1/DTD/svg11.dtd"><svg width="100%" height="100%" viewBox="0 0 309 127" version="1.1" xmlns="http://www.w3.org/2000/svg" xmlns:xlink="http://www.w3.org/1999/xlink" xml:space="preserve" xmlns:serif="http://www.serif.com/" style="fill-rule:evenodd;clip-rule:evenodd;stroke-linejoin:round;stroke-miterlimit:1.41421;"><g id="Group_4"><g id="Group_1"><path id="Path_1" d="M48.302,126.564l0,-13.728l1.647,0l0,12.311l6.393,0l0,1.417l-8.04,0Z" style="fill:#dd2522;fill-rule:nonzero;"/><path id="Path_2" d="M67.232,126.856c-3.786,-0.195 -6.795,-3.363 -6.795,-7.154c0,-3.792 3.009,-6.96 6.795,-7.155c3.957,0 6.706,3.291 6.706,7.143c0.003,0.089 0.005,0.179 0.005,0.269c0,3.714 -2.998,6.795 -6.711,6.897Zm0,-12.9c-2.958,0 -4.916,2.542 -4.916,5.73c0,3.188 1.958,5.749 4.916,5.749c2.937,0 4.832,-2.666 4.832,-5.749c0,-3.034 -1.894,-5.725 -4.832,-5.725l0,-0.005Z" style="fill:#dd2522;fill-rule:nonzero;"/><path id="Path_3" d="M85.001,126.813c-2.708,0 -5.124,-1.622 -5.124,-4.5l0,-9.478l1.625,0l0,8.9c-0.01,0.108 -0.016,0.216 -0.016,0.325c0,1.837 1.512,3.35 3.35,3.35c0.089,0 0.178,-0.004 0.266,-0.011c1.791,0 3.749,-0.789 3.749,-3.685l0,-8.875l1.645,0l0,8.959c0.003,3.517 -2.224,5.015 -5.495,5.015Z" style="fill:#dd2522;fill-rule:nonzero;"/><path id="Path_4" d="M103.101,126.902l-0.875,0l-5.624,-14.064l1.729,0l4.374,11.106l4.123,-11.106l1.6,0l-5.327,14.064Z" style="fill:#dd2522;fill-rule:nonzero;"/><path id="Path_5" d="M114.865,126.564l0,-13.728l7.832,0l0,1.417l-6.185,0l0,4.624l5.394,0l0,1.417l-5.394,0l0,4.854l6.644,0l0,1.417l-8.291,-0.001Z" style="fill:#dd2522;fill-rule:nonzero;"/><path id="Path_6" d="M138.044,126.564c-0.521,-0.6 -1,-1.25 -1.457,-1.9c-0.959,-1.333 -1.958,-2.647 -2.854,-4.021l-1.665,0l0,5.917l-1.644,0l0,-13.68c1.229,-0.062 2.48,-0.168 3.729,-0.168c2.584,0 4.832,1.022 4.832,3.94c0.023,1.902 -1.385,3.543 -3.269,3.809l2.5,3.561c0.621,0.893 1.304,1.743 2.042,2.542l-2.214,0Zm-4.162,-12.39c-0.6,0 -1.209,0.018 -1.811,0.04l0,5.06l1.773,0c1.916,0 3.291,-0.585 3.291,-2.71c-0.004,-1.913 -1.628,-2.39 -3.253,-2.39Z" style="fill:#dd2522;fill-rule:nonzero;"/><path id="Path_7" d="M146.543,126.564l0,-13.728l7.832,0l0,1.417l-6.185,0l0,4.624l5.392,0l0,1.417l-5.392,0l0,4.854l6.642,0l0,1.417l-8.289,-0.001Z" style="fill:#dd2522;fill-rule:nonzero;"/><path id="Path_8" d="M166.833,126.564l-4.73,0l0,-13.684l0.938,-0.062c0.643,-0.044 1.206,-0.062 1.768,-0.062c0.668,0 1.355,0.019 2.228,0.019c4.875,0 6.541,3.71 6.541,6.854c0.001,2.998 -1.727,6.935 -6.745,6.935Zm-0.087,-12.455l-0.1,0l-2.893,0.041l0,11.121l2.769,0c3.539,0 5.186,-2.162 5.186,-5.643c-0.003,-2.414 -1.19,-5.514 -4.963,-5.514l0.001,-0.005Z" style="fill:#dd2522;fill-rule:nonzero;"/><path id="Path_9" d="M197.844,126.564c-0.522,-0.6 -1,-1.25 -1.46,-1.9c-0.957,-1.333 -1.958,-2.647 -2.853,-4.021l-1.665,0l0,5.917l-1.647,0l0,-13.68c1.231,-0.062 2.48,-0.168 3.729,-0.168c2.585,0 4.832,1.022 4.832,3.94c0.023,1.902 -1.385,3.543 -3.269,3.809l2.5,3.561c0.621,0.894 1.303,1.743 2.041,2.542l-2.208,0Zm-4.167,-12.39c-0.606,0 -1.209,0.018 -1.812,0.04l0,5.06l1.771,0c1.914,0 3.288,-0.585 3.288,-2.71c0,-1.913 -1.623,-2.39 -3.247,-2.39Z" style="fill:#dd2522;fill-rule:nonzero;"/><path id="Path_10" d="M211.356,126.856c-3.786,-0.195 -6.795,-3.363 -6.795,-7.154c0,-3.792 3.009,-6.96 6.795,-7.155c3.956,0 6.706,3.291 6.706,7.143c0.003,0.089 0.005,0.179 0.005,0.269c0,3.714 -2.998,6.795 -6.711,6.897Zm0,-12.9c-2.958,0 -4.916,2.542 -4.916,5.73c0,3.188 1.958,5.749 4.916,5.749c2.933,0 4.829,-2.666 4.829,-5.749c0.004,-3.034 -1.892,-5.725 -4.829,-5.725l0,-0.005Z" style="fill:#dd2522;fill-rule:nonzero;"/><path id="Path_11" d="M230.348,126.856c-3.786,-0.195 -6.795,-3.363 -6.795,-7.154c0,-3.792 3.009,-6.96 6.795,-7.155c3.958,0 6.706,3.291 6.706,7.143c0.003,0.089 0.005,0.179 0.005,0.269c0,3.714 -2.998,6.795 -6.711,6.897Zm0,-12.9c-2.958,0 -4.916,2.542 -4.916,5.73c0,3.188 1.958,5.749 4.916,5.749c2.939,0 4.835,-2.666 4.835,-5.749c0.004,-3.034 -1.891,-5.725 -4.835,-5.725l0,-0.005Z" style="fill:#dd2522;fill-rule:nonzero;"/><path id="Path_12" d="M245.347,114.253l0,4.849l5.395,0l0,1.417l-5.395,0l0,6.041l-1.647,0l0,-13.724l7.83,0l0,1.417l-6.183,0Z" style="fill:#dd2522;fill-rule:nonzero;"/></g><g id="Group_2"><path id="Path_13" d="M208.247,37.039c-7.396,-0.57 -14.82,-0.676 -22.229,-0.317c-0.012,-0.032 -0.02,-0.066 -0.025,-0.1c6.031,-4.314 11.785,-9.003 17.227,-14.039c-7.15,1.991 -14.167,4.429 -21.011,7.3c-0.008,-0.007 -0.014,-0.016 -0.019,-0.025c4.217,-6.142 8.04,-12.544 11.448,-19.169c-6.051,4.327 -11.823,9.032 -17.279,14.089c-0.044,-0.025 -0.08,-0.044 -0.124,-0.069c1.85,-7.184 3.244,-14.478 4.176,-21.838c-4.197,6.121 -8.005,12.5 -11.4,19.1l-0.093,-0.018c-0.718,-7.386 -1.903,-14.719 -3.548,-21.956c-1.848,7.184 -3.241,14.478 -4.17,21.838l-0.1,0.018c-3.204,-6.692 -6.825,-13.176 -10.842,-19.414c0.721,7.386 1.908,14.719 3.552,21.956c-0.031,0.012 -0.05,0.031 -0.081,0.043c-5.3,-5.197 -10.923,-10.054 -16.835,-14.542c3.208,6.704 6.836,13.199 10.863,19.445c-0.018,0.02 -0.034,0.04 -0.049,0.062c-6.767,-3.075 -13.72,-5.722 -20.819,-7.924c-7.099,-2.202 4.142,4.226 11.214,10.061c5.123,0.459 10.209,1.274 15.219,2.438c1.699,-1.971 3.882,-3.466 6.333,-4.338c7.915,-2.785 16.719,1.434 19.508,9.347c0.629,1.791 0.909,3.685 0.826,5.581c4.065,2.35 7.98,4.95 11.721,7.787c5.435,0.267 10.88,0.261 16.314,-0.019c-6.764,-3.069 -13.713,-5.711 -20.807,-7.911l0,-0.081c7.158,-1.985 14.183,-4.425 21.03,-7.305Z" style="fill:url(#_Radial1);fill-rule:nonzero;"/><path id="Path_14" d="M198.073,62.202c-20.184,-18.885 -47.183,-28.81 -74.793,-27.494c-0.308,0.015 -3.639,-0.926 -3.791,-0.5c-0.152,0.426 3.834,2.281 3.834,2.281c9.994,9.092 21.597,16.241 34.212,21.08c12.876,4.591 26.502,6.717 40.165,6.265c1.462,0.345 2.944,0.594 4.438,0.746c0.156,-0.414 -4.065,-2.378 -4.065,-2.378Z" style="fill:#dd2522;fill-rule:nonzero;"/></g><path id="Path_15" d="M236.392,57.646c-12.653,0 -21.254,10.223 -21.254,21.447c0,11.28 8.6,21.385 21.254,21.385c12.591,0 21.012,-10.409 21.012,-21.447c0,-11.348 -8.477,-21.385 -21.012,-21.385Zm0,36.343c-7.544,0 -13.026,-6.357 -13.026,-14.959c0,-8.602 5.482,-14.9 13.026,-14.9c7.483,0 12.721,6.668 12.721,14.9c0,8.415 -5.234,14.959 -12.721,14.959Zm-228.851,-12.025l14.716,0l0,-6.424l-14.716,0l0,-10.535l17.022,0l0,-6.482l-24.563,0l0,41.079l25.868,0l0,-6.42l-18.327,0l0,-11.218Zm71.618,-2.933c0,-11.348 -8.477,-21.385 -21.012,-21.385c-12.653,0 -21.254,10.223 -21.254,21.447c0,11.28 8.6,21.385 21.254,21.385c3.606,0.025 7.156,-0.896 10.295,-2.672l7.386,7.383l5.338,-5.333l-6.957,-6.954c3.191,-3.919 4.939,-8.818 4.95,-13.871Zm-21.012,14.959c-7.544,0 -13.026,-6.357 -13.026,-14.959c0,-8.602 5.481,-14.9 13.026,-14.9c7.483,0 12.722,6.668 12.722,14.9c0,8.414 -5.239,14.958 -12.722,14.958l0,0.001Zm136.232,-35.014c1.56,1.293 2.815,2.411 3.7,3.226c1.21,0.56 2.391,1.182 3.536,1.865l0,-5.612l-7.236,0l0,0.521Zm91.454,19.5l13.219,-19.949l-7.544,0l-9.291,13.964l-9.291,-13.964l-8.1,0l13.086,20.313l-13.9,20.756l7.667,0l10.036,-14.9l9.788,14.9l8.1,0l-13.77,-21.12Zm-91.454,-14.578l0,24.107l-18.538,-25.642c-3.477,-0.577 -6.922,-1.33 -10.322,-2.256l0,39.494l7.3,0l0,-29.3l21.13,29.3l7.669,0l0,-35.032c-1.162,-0.149 -3.909,-0.733 -3.909,-0.733c-0.86,0.031 -1.998,0.062 -3.33,0.062Zm-53.175,35.7l7.545,0l0,-41.076l-7.545,0l0,41.076Zm-23.125,-14.9c0,7.29 -4.931,9.166 -9.667,9.166c-3.925,0 -9.1,-1.808 -9.1,-9.1l0,-26.242l-7.545,0l0,27.99c0,8.912 7.979,13.834 16.394,13.834c10.1,0 17.457,-4.673 17.457,-15.394l0,-26.43l-7.539,0l0,26.176Z" style="fill:#fcfdfe;fill-rule:nonzero;"/><path id="Path_16" d="M308.765,61.988c0.017,1.424 -0.834,2.724 -2.147,3.277c-0.442,0.185 -0.916,0.278 -1.395,0.275c-0.485,0.006 -0.967,-0.085 -1.417,-0.266c-0.413,-0.167 -0.788,-0.418 -1.1,-0.736c-0.314,-0.321 -0.56,-0.701 -0.724,-1.119c-0.177,-0.45 -0.266,-0.93 -0.261,-1.413c-0.004,-0.941 0.365,-1.847 1.026,-2.517c0.669,-0.663 1.575,-1.033 2.517,-1.025c0.485,-0.006 0.967,0.085 1.417,0.266c0.416,0.168 0.793,0.418 1.109,0.736c0.314,0.318 0.56,0.697 0.721,1.114c0.175,0.448 0.262,0.927 0.254,1.408Zm-0.69,0.056c0.006,-0.417 -0.067,-0.831 -0.214,-1.221c-0.133,-0.35 -0.334,-0.67 -0.59,-0.942c-0.255,-0.26 -0.562,-0.464 -0.9,-0.6c-0.355,-0.141 -0.733,-0.213 -1.115,-0.21c-0.402,-0.005 -0.801,0.074 -1.171,0.233c-0.339,0.147 -0.645,0.361 -0.9,0.629c-0.25,0.266 -0.446,0.578 -0.578,0.918c-0.138,0.353 -0.208,0.73 -0.206,1.109c-0.005,0.417 0.068,0.831 0.215,1.221c0.133,0.349 0.334,0.669 0.59,0.941c0.252,0.26 0.556,0.464 0.892,0.6c0.356,0.143 0.736,0.214 1.119,0.21c0.404,0.006 0.805,-0.073 1.177,-0.233c0.682,-0.293 1.214,-0.853 1.473,-1.548c0.139,-0.353 0.21,-0.729 0.209,-1.108l-0.001,0.001Zm-1.193,1.743c0.001,0.022 -0.002,0.044 -0.009,0.065c-0.011,0.022 -0.032,0.038 -0.056,0.042c-0.045,0.012 -0.091,0.02 -0.137,0.023c-0.081,0.007 -0.163,0.01 -0.245,0.009c-0.087,0 -0.159,0 -0.221,-0.009c-0.049,-0.004 -0.097,-0.016 -0.143,-0.033c-0.034,-0.012 -0.064,-0.033 -0.087,-0.06c-0.026,-0.028 -0.044,-0.063 -0.053,-0.1l-0.205,-0.662c-0.051,-0.198 -0.155,-0.378 -0.3,-0.522c-0.154,-0.11 -0.342,-0.163 -0.531,-0.149l-0.261,0l0,1.379c0.004,0.049 -0.022,0.097 -0.065,0.121c-0.102,0.033 -0.21,0.046 -0.317,0.037c-0.113,0.009 -0.227,-0.004 -0.336,-0.037c-0.047,-0.021 -0.077,-0.069 -0.075,-0.121l0,-3.44c-0.006,-0.102 0.026,-0.204 0.09,-0.284c0.069,-0.076 0.17,-0.116 0.273,-0.107l1,0c0.227,-0.004 0.453,0.021 0.674,0.075c0.171,0.04 0.332,0.114 0.473,0.219c0.121,0.091 0.216,0.214 0.273,0.354c0.063,0.149 0.093,0.309 0.09,0.471c0.015,0.257 -0.073,0.509 -0.245,0.7c-0.184,0.174 -0.412,0.295 -0.659,0.35c0.157,0.054 0.3,0.141 0.42,0.256c0.153,0.155 0.27,0.342 0.345,0.546l0.243,0.634c0.03,0.078 0.051,0.16 0.064,0.243Zm-1.035,-2.638c0,-0.071 -0.011,-0.142 -0.031,-0.21c-0.024,-0.067 -0.065,-0.126 -0.118,-0.173c-0.067,-0.056 -0.145,-0.096 -0.23,-0.117c-0.119,-0.031 -0.243,-0.045 -0.366,-0.042l-0.466,0l0,1.138l0.447,0c0.213,0.022 0.427,-0.036 0.6,-0.163c0.111,-0.116 0.17,-0.272 0.165,-0.433l-0.001,0Z" style="fill:#fcfdfe;fill-rule:nonzero;"/></g><defs><radialGradient id="_Radial1" cx="0" cy="0" r="1" gradientUnits="userSpaceOnUse" gradientTransform="matrix(31.052,-15.1513,15.1513,31.052,-1474.66,-1706.61)"><stop offset="0" style="stop-color:#eb3e16;stop-opacity:1"/><stop offset="0.86" style="stop-color:#e35e16;stop-opacity:1"/><stop offset="1" style="stop-color:#e35e16;stop-opacity:1"/></radialGradient></defs></svg>